<?xml version="1.0" encoding="UTF-8" standalone="no"?>
<!DOCTYPE svg PUBLIC "-//W3C//DTD SVG 1.1//EN"
 "http://www.w3.org/Graphics/SVG/1.1/DTD/svg11.dtd">
<!-- Generated by graphviz version 5.0.0 (20220707.1540)
 -->
<!-- Title: UmlClassDiagram Pages: 1 -->
<svg width="2066pt" height="1502pt"
 viewBox="0.00 0.00 2065.88 1502.40" xmlns="http://www.w3.org/2000/svg" xmlns:xlink="http://www.w3.org/1999/xlink">
<g id="graph0" class="graph" transform="scale(1 1) rotate(0) translate(4 1498.4)">
<title>UmlClassDiagram</title>
<polygon fill="white" stroke="transparent" points="-4,4 -4,-1498.4 2061.88,-1498.4 2061.88,4 -4,4"/>
<!-- 0 -->
<g id="node1" class="node">
<title>0</title>
<polygon fill="#f2f2f2" stroke="black" points="189.89,-269.3 189.89,-461.3 483.15,-461.3 483.15,-269.3 189.89,-269.3"/>
<text text-anchor="middle" x="336.52" y="-444.7" font-family="Times,serif" font-size="14.00">Migrations</text>
<text text-anchor="middle" x="336.52" y="-427.9" font-family="Times,serif" font-size="14.00">contractsMigrations.sol</text>
<polyline fill="none" stroke="black" points="189.89,-419.7 483.15,-419.7 "/>
<text text-anchor="start" x="197.89" y="-403.1" font-family="Times,serif" font-size="14.00">Public:</text>
<text text-anchor="start" x="197.89" y="-386.3" font-family="Times,serif" font-size="14.00"> &#160;&#160;owner: address</text>
<text text-anchor="start" x="197.89" y="-369.5" font-family="Times,serif" font-size="14.00"> &#160;&#160;last_completed_migration: uint</text>
<polyline fill="none" stroke="black" points="189.89,-361.3 483.15,-361.3 "/>
<text text-anchor="start" x="197.89" y="-344.7" font-family="Times,serif" font-size="14.00">Public:</text>
<text text-anchor="start" x="197.89" y="-327.9" font-family="Times,serif" font-size="14.00"> &#160;&#160;&#160;&lt;&lt;modifier&gt;&gt; restricted()</text>
<text text-anchor="start" x="197.89" y="-311.1" font-family="Times,serif" font-size="14.00"> &#160;&#160;&#160;constructor()</text>
<text text-anchor="start" x="197.89" y="-294.3" font-family="Times,serif" font-size="14.00"> &#160;&#160;&#160;setCompleted(completed: uint) &lt;&lt;restricted&gt;&gt;</text>
<text text-anchor="start" x="197.89" y="-277.5" font-family="Times,serif" font-size="14.00"> &#160;&#160;&#160;upgrade(new_address: address) &lt;&lt;restricted&gt;&gt;</text>
</g>
<!-- 0&#45;&gt;0 -->
<g id="edge1" class="edge">
<title>0&#45;&gt;0</title>
<path fill="none" stroke="black" stroke-dasharray="5,2" d="M408.45,-269.07C455.56,-242.99 501.15,-275.07 501.15,-365.3 501.15,-449.72 461.25,-483.23 417.53,-465.85"/>
<polygon fill="black" stroke="black" points="418.98,-462.66 408.45,-461.53 415.98,-468.98 418.98,-462.66"/>
</g>
<!-- 1 -->
<g id="node2" class="node">
<title>1</title>
<polygon fill="#f2f2f2" stroke="black" points="318.76,-788.3 318.76,-1064.3 646.28,-1064.3 646.28,-788.3 318.76,-788.3"/>
<text text-anchor="middle" x="482.52" y="-1047.7" font-family="Times,serif" font-size="14.00">ConsumerRole</text>
<text text-anchor="middle" x="482.52" y="-1030.9" font-family="Times,serif" font-size="14.00">contractscoffeeaccesscontrolConsumerRole.sol</text>
<polyline fill="none" stroke="black" points="318.76,-1022.7 646.28,-1022.7 "/>
<text text-anchor="start" x="326.76" y="-1006.1" font-family="Times,serif" font-size="14.00">Private:</text>
<text text-anchor="start" x="326.76" y="-989.3" font-family="Times,serif" font-size="14.00"> &#160;&#160;consumers: Roles.Role</text>
<polyline fill="none" stroke="black" points="318.76,-981.1 646.28,-981.1 "/>
<text text-anchor="start" x="326.76" y="-964.5" font-family="Times,serif" font-size="14.00">Internal:</text>
<text text-anchor="start" x="326.76" y="-947.7" font-family="Times,serif" font-size="14.00"> &#160;&#160;&#160;_addConsumer(account: address)</text>
<text text-anchor="start" x="326.76" y="-930.9" font-family="Times,serif" font-size="14.00"> &#160;&#160;&#160;_removeConsumer(account: address)</text>
<text text-anchor="start" x="326.76" y="-914.1" font-family="Times,serif" font-size="14.00">Public:</text>
<text text-anchor="start" x="326.76" y="-897.3" font-family="Times,serif" font-size="14.00"> &#160;&#160;&#160;&lt;&lt;event&gt;&gt; ConsumerAdded(account: address)</text>
<text text-anchor="start" x="326.76" y="-880.5" font-family="Times,serif" font-size="14.00"> &#160;&#160;&#160;&lt;&lt;event&gt;&gt; ConsumerRemoved(account: address)</text>
<text text-anchor="start" x="326.76" y="-863.7" font-family="Times,serif" font-size="14.00"> &#160;&#160;&#160;&lt;&lt;modifier&gt;&gt; onlyConsumer()</text>
<text text-anchor="start" x="326.76" y="-846.9" font-family="Times,serif" font-size="14.00"> &#160;&#160;&#160;constructor()</text>
<text text-anchor="start" x="326.76" y="-830.1" font-family="Times,serif" font-size="14.00"> &#160;&#160;&#160;isConsumer(account: address): bool</text>
<text text-anchor="start" x="326.76" y="-813.3" font-family="Times,serif" font-size="14.00"> &#160;&#160;&#160;addConsumer(account: address) &lt;&lt;onlyConsumer&gt;&gt;</text>
<text text-anchor="start" x="326.76" y="-796.5" font-family="Times,serif" font-size="14.00"> &#160;&#160;&#160;renounceConsumer()</text>
</g>
<!-- 6 -->
<g id="node6" class="node">
<title>6</title>
<polygon fill="#f2f2f2" stroke="black" points="550.2,-1181.3 550.2,-1264.5 778.83,-1264.5 778.83,-1181.3 550.2,-1181.3"/>
<text text-anchor="middle" x="664.52" y="-1247.9" font-family="Times,serif" font-size="14.00">&lt;&lt;Struct&gt;&gt;</text>
<text text-anchor="middle" x="664.52" y="-1231.1" font-family="Times,serif" font-size="14.00">Role</text>
<text text-anchor="middle" x="664.52" y="-1214.3" font-family="Times,serif" font-size="14.00">contractscoffeeaccesscontrolRoles.sol</text>
<polyline fill="none" stroke="black" points="550.2,-1206.1 778.83,-1206.1 "/>
<text text-anchor="start" x="558.2" y="-1189.5" font-family="Times,serif" font-size="14.00">bearer: mapping(address=&gt;bool)</text>
</g>
<!-- 1&#45;&gt;6 -->
<g id="edge3" class="edge">
<title>1&#45;&gt;6</title>
<path fill="none" stroke="black" d="M567.39,-1064.68C591.26,-1103.32 615.7,-1142.87 634.09,-1172.64"/>
<polygon fill="black" stroke="black" points="631.12,-1174.49 639.35,-1181.16 637.07,-1170.81 631.12,-1174.49"/>
</g>
<!-- 5 -->
<g id="node7" class="node">
<title>5</title>
<polygon fill="#f2f2f2" stroke="black" points="541.63,-1360.3 541.63,-1493.9 787.4,-1493.9 787.4,-1360.3 541.63,-1360.3"/>
<text text-anchor="middle" x="664.52" y="-1477.3" font-family="Times,serif" font-size="14.00">&lt;&lt;Library&gt;&gt;</text>
<text text-anchor="middle" x="664.52" y="-1460.5" font-family="Times,serif" font-size="14.00">Roles</text>
<text text-anchor="middle" x="664.52" y="-1443.7" font-family="Times,serif" font-size="14.00">contractscoffeeaccesscontrolRoles.sol</text>
<polyline fill="none" stroke="black" points="541.63,-1435.5 787.4,-1435.5 "/>
<text text-anchor="start" x="549.63" y="-1418.9" font-family="Times,serif" font-size="14.00">Internal:</text>
<text text-anchor="start" x="549.63" y="-1402.1" font-family="Times,serif" font-size="14.00"> &#160;&#160;&#160;add(role: Role, account: address)</text>
<text text-anchor="start" x="549.63" y="-1385.3" font-family="Times,serif" font-size="14.00"> &#160;&#160;&#160;remove(role: Role, account: address)</text>
<text text-anchor="start" x="549.63" y="-1368.5" font-family="Times,serif" font-size="14.00"> &#160;&#160;&#160;has(role: Role, account: address): bool</text>
</g>
<!-- 1&#45;&gt;5 -->
<g id="edge2" class="edge">
<title>1&#45;&gt;5</title>
<path fill="none" stroke="black" d="M479.14,-1064.52C482.76,-1144.71 497.34,-1245.25 541.52,-1323.8 547.32,-1334.11 554.59,-1343.82 562.68,-1352.84"/>
<polygon fill="black" stroke="black" points="560.26,-1355.37 569.66,-1360.26 565.36,-1350.58 560.26,-1355.37"/>
</g>
<!-- 2 -->
<g id="node3" class="node">
<title>2</title>
<polygon fill="#f2f2f2" stroke="black" points="663.87,-788.3 663.87,-1064.3 999.17,-1064.3 999.17,-788.3 663.87,-788.3"/>
<text text-anchor="middle" x="831.52" y="-1047.7" font-family="Times,serif" font-size="14.00">DistributorRole</text>
<text text-anchor="middle" x="831.52" y="-1030.9" font-family="Times,serif" font-size="14.00">contractscoffeeaccesscontrolDistributorRole.sol</text>
<polyline fill="none" stroke="black" points="663.87,-1022.7 999.17,-1022.7 "/>
<text text-anchor="start" x="671.87" y="-1006.1" font-family="Times,serif" font-size="14.00">Private:</text>
<text text-anchor="start" x="671.87" y="-989.3" font-family="Times,serif" font-size="14.00"> &#160;&#160;distributors: Roles.Role</text>
<polyline fill="none" stroke="black" points="663.87,-981.1 999.17,-981.1 "/>
<text text-anchor="start" x="671.87" y="-964.5" font-family="Times,serif" font-size="14.00">Internal:</text>
<text text-anchor="start" x="671.87" y="-947.7" font-family="Times,serif" font-size="14.00"> &#160;&#160;&#160;_addDistributor(account: address)</text>
<text text-anchor="start" x="671.87" y="-930.9" font-family="Times,serif" font-size="14.00"> &#160;&#160;&#160;_removeDistributor(account: address)</text>
<text text-anchor="start" x="671.87" y="-914.1" font-family="Times,serif" font-size="14.00">Public:</text>
<text text-anchor="start" x="671.87" y="-897.3" font-family="Times,serif" font-size="14.00"> &#160;&#160;&#160;&lt;&lt;event&gt;&gt; DistributorAdded(account: address)</text>
<text text-anchor="start" x="671.87" y="-880.5" font-family="Times,serif" font-size="14.00"> &#160;&#160;&#160;&lt;&lt;event&gt;&gt; DistributorRemoved(account: address)</text>
<text text-anchor="start" x="671.87" y="-863.7" font-family="Times,serif" font-size="14.00"> &#160;&#160;&#160;&lt;&lt;modifier&gt;&gt; onlyDistributor()</text>
<text text-anchor="start" x="671.87" y="-846.9" font-family="Times,serif" font-size="14.00"> &#160;&#160;&#160;constructor()</text>
<text text-anchor="start" x="671.87" y="-830.1" font-family="Times,serif" font-size="14.00"> &#160;&#160;&#160;isDistributor(account: address): bool</text>
<text text-anchor="start" x="671.87" y="-813.3" font-family="Times,serif" font-size="14.00"> &#160;&#160;&#160;addDistributor(account: address) &lt;&lt;onlyDistributor&gt;&gt;</text>
<text text-anchor="start" x="671.87" y="-796.5" font-family="Times,serif" font-size="14.00"> &#160;&#160;&#160;renounceDistributor()</text>
</g>
<!-- 2&#45;&gt;6 -->
<g id="edge5" class="edge">
<title>2&#45;&gt;6</title>
<path fill="none" stroke="black" d="M753.64,-1064.68C731.83,-1103.15 709.51,-1142.53 692.66,-1172.25"/>
<polygon fill="black" stroke="black" points="689.5,-1170.73 687.61,-1181.16 695.59,-1174.18 689.5,-1170.73"/>
</g>
<!-- 2&#45;&gt;5 -->
<g id="edge4" class="edge">
<title>2&#45;&gt;5</title>
<path fill="none" stroke="black" d="M841.04,-1064.68C840.75,-1144.67 829.95,-1244.97 787.52,-1323.8 781.97,-1334.12 774.9,-1343.81 766.98,-1352.81"/>
<polygon fill="black" stroke="black" points="764.36,-1350.49 760.13,-1360.2 769.49,-1355.24 764.36,-1350.49"/>
</g>
<!-- 3 -->
<g id="node4" class="node">
<title>3</title>
<polygon fill="#f2f2f2" stroke="black" points="1016.88,-788.3 1016.88,-1064.3 1310.16,-1064.3 1310.16,-788.3 1016.88,-788.3"/>
<text text-anchor="middle" x="1163.52" y="-1047.7" font-family="Times,serif" font-size="14.00">FarmerRole</text>
<text text-anchor="middle" x="1163.52" y="-1030.9" font-family="Times,serif" font-size="14.00">contractscoffeeaccesscontrolFarmerRole.sol</text>
<polyline fill="none" stroke="black" points="1016.88,-1022.7 1310.16,-1022.7 "/>
<text text-anchor="start" x="1024.88" y="-1006.1" font-family="Times,serif" font-size="14.00">Private:</text>
<text text-anchor="start" x="1024.88" y="-989.3" font-family="Times,serif" font-size="14.00"> &#160;&#160;farmers: Roles.Role</text>
<polyline fill="none" stroke="black" points="1016.88,-981.1 1310.16,-981.1 "/>
<text text-anchor="start" x="1024.88" y="-964.5" font-family="Times,serif" font-size="14.00">Internal:</text>
<text text-anchor="start" x="1024.88" y="-947.7" font-family="Times,serif" font-size="14.00"> &#160;&#160;&#160;_addFarmer(account: address)</text>
<text text-anchor="start" x="1024.88" y="-930.9" font-family="Times,serif" font-size="14.00"> &#160;&#160;&#160;_removeFarmer(account: address)</text>
<text text-anchor="start" x="1024.88" y="-914.1" font-family="Times,serif" font-size="14.00">Public:</text>
<text text-anchor="start" x="1024.88" y="-897.3" font-family="Times,serif" font-size="14.00"> &#160;&#160;&#160;&lt;&lt;event&gt;&gt; FarmerAdded(account: address)</text>
<text text-anchor="start" x="1024.88" y="-880.5" font-family="Times,serif" font-size="14.00"> &#160;&#160;&#160;&lt;&lt;event&gt;&gt; FarmerRemoved(account: address)</text>
<text text-anchor="start" x="1024.88" y="-863.7" font-family="Times,serif" font-size="14.00"> &#160;&#160;&#160;&lt;&lt;modifier&gt;&gt; onlyFarmer()</text>
<text text-anchor="start" x="1024.88" y="-846.9" font-family="Times,serif" font-size="14.00"> &#160;&#160;&#160;constructor()</text>
<text text-anchor="start" x="1024.88" y="-830.1" font-family="Times,serif" font-size="14.00"> &#160;&#160;&#160;isFarmer(account: address): bool</text>
<text text-anchor="start" x="1024.88" y="-813.3" font-family="Times,serif" font-size="14.00"> &#160;&#160;&#160;addFarmer(account: address) &lt;&lt;onlyFarmer&gt;&gt;</text>
<text text-anchor="start" x="1024.88" y="-796.5" font-family="Times,serif" font-size="14.00"> &#160;&#160;&#160;renounceFarmer()</text>
</g>
<!-- 3&#45;&gt;6 -->
<g id="edge7" class="edge">
<title>3&#45;&gt;6</title>
<path fill="none" stroke="black" d="M1037.37,-1064.64C1027.95,-1072.29 1018.3,-1079.5 1008.52,-1086 941.23,-1130.73 856.98,-1164.33 788.7,-1186.92"/>
<polygon fill="black" stroke="black" points="787.59,-1183.6 779.17,-1190.04 789.77,-1190.25 787.59,-1183.6"/>
</g>
<!-- 3&#45;&gt;5 -->
<g id="edge6" class="edge">
<title>3&#45;&gt;5</title>
<path fill="none" stroke="black" d="M1063.79,-1064.49C1001.06,-1145.39 915.39,-1246.67 826.52,-1323.8 814.35,-1334.36 800.98,-1344.59 787.31,-1354.23"/>
<polygon fill="black" stroke="black" points="784.99,-1351.58 778.77,-1360.16 788.98,-1357.34 784.99,-1351.58"/>
</g>
<!-- 4 -->
<g id="node5" class="node">
<title>4</title>
<polygon fill="#f2f2f2" stroke="black" points="0,-788.3 0,-1064.3 301.04,-1064.3 301.04,-788.3 0,-788.3"/>
<text text-anchor="middle" x="150.52" y="-1047.7" font-family="Times,serif" font-size="14.00">RetailerRole</text>
<text text-anchor="middle" x="150.52" y="-1030.9" font-family="Times,serif" font-size="14.00">contractscoffeeaccesscontrolRetailerRole.sol</text>
<polyline fill="none" stroke="black" points="0,-1022.7 301.04,-1022.7 "/>
<text text-anchor="start" x="8" y="-1006.1" font-family="Times,serif" font-size="14.00">Private:</text>
<text text-anchor="start" x="8" y="-989.3" font-family="Times,serif" font-size="14.00"> &#160;&#160;retailers: Roles.Role</text>
<polyline fill="none" stroke="black" points="0,-981.1 301.04,-981.1 "/>
<text text-anchor="start" x="8" y="-964.5" font-family="Times,serif" font-size="14.00">Internal:</text>
<text text-anchor="start" x="8" y="-947.7" font-family="Times,serif" font-size="14.00"> &#160;&#160;&#160;_addRetailer(account: address)</text>
<text text-anchor="start" x="8" y="-930.9" font-family="Times,serif" font-size="14.00"> &#160;&#160;&#160;_removeRetailer(account: address)</text>
<text text-anchor="start" x="8" y="-914.1" font-family="Times,serif" font-size="14.00">Public:</text>
<text text-anchor="start" x="8" y="-897.3" font-family="Times,serif" font-size="14.00"> &#160;&#160;&#160;&lt;&lt;event&gt;&gt; RetailerAdded(account: address)</text>
<text text-anchor="start" x="8" y="-880.5" font-family="Times,serif" font-size="14.00"> &#160;&#160;&#160;&lt;&lt;event&gt;&gt; RetailerRemoved(account: address)</text>
<text text-anchor="start" x="8" y="-863.7" font-family="Times,serif" font-size="14.00"> &#160;&#160;&#160;&lt;&lt;modifier&gt;&gt; onlyRetailer()</text>
<text text-anchor="start" x="8" y="-846.9" font-family="Times,serif" font-size="14.00"> &#160;&#160;&#160;constructor()</text>
<text text-anchor="start" x="8" y="-830.1" font-family="Times,serif" font-size="14.00"> &#160;&#160;&#160;isRetailer(account: address): bool</text>
<text text-anchor="start" x="8" y="-813.3" font-family="Times,serif" font-size="14.00"> &#160;&#160;&#160;addRetailer(account: address) &lt;&lt;onlyRetailer&gt;&gt;</text>
<text text-anchor="start" x="8" y="-796.5" font-family="Times,serif" font-size="14.00"> &#160;&#160;&#160;renounceRetailer()</text>
</g>
<!-- 4&#45;&gt;6 -->
<g id="edge9" class="edge">
<title>4&#45;&gt;6</title>
<path fill="none" stroke="black" d="M279.58,-1064.34C289.35,-1072.11 299.37,-1079.42 309.52,-1086 380.39,-1131.93 469.13,-1165.91 540.15,-1188.4"/>
<polygon fill="black" stroke="black" points="539.46,-1191.85 550.05,-1191.49 541.55,-1185.17 539.46,-1191.85"/>
</g>
<!-- 4&#45;&gt;5 -->
<g id="edge8" class="edge">
<title>4&#45;&gt;5</title>
<path fill="none" stroke="black" d="M244.76,-1064.57C305.57,-1146.47 390.02,-1248.79 480.52,-1323.8 496.48,-1337.03 514.4,-1349.42 532.63,-1360.69"/>
<polygon fill="black" stroke="black" points="531.23,-1363.93 541.6,-1366.13 534.86,-1357.95 531.23,-1363.93"/>
</g>
<!-- 6&#45;&gt;5 -->
<g id="edge10" class="edge">
<title>6&#45;&gt;5</title>
<path fill="none" stroke="black" d="M658.97,-1264.82C657.88,-1288.64 657.53,-1319.48 657.92,-1347.79"/>
<polygon fill="black" stroke="black" points="657.93,-1348.17 662.04,-1354.1 658.15,-1360.17 654.04,-1354.24 657.93,-1348.17"/>
</g>
<!-- 5&#45;&gt;6 -->
<g id="edge11" class="edge">
<title>5&#45;&gt;6</title>
<path fill="none" stroke="black" stroke-dasharray="5,2" d="M670.89,-1360.17C671.51,-1332.56 671.37,-1300.95 670.48,-1275.13"/>
<polygon fill="black" stroke="black" points="673.96,-1274.67 670.07,-1264.82 666.97,-1274.95 673.96,-1274.67"/>
</g>
<!-- 8 -->
<g id="node8" class="node">
<title>8</title>
<polygon fill="#f2f2f2" stroke="black" points="1474.85,-1122.5 1474.85,-1323.3 1694.18,-1323.3 1694.18,-1122.5 1474.85,-1122.5"/>
<text text-anchor="middle" x="1584.52" y="-1306.7" font-family="Times,serif" font-size="14.00">&lt;&lt;Enum&gt;&gt;</text>
<text text-anchor="middle" x="1584.52" y="-1289.9" font-family="Times,serif" font-size="14.00">State</text>
<text text-anchor="middle" x="1584.52" y="-1273.1" font-family="Times,serif" font-size="14.00">contractscoffeebaseSupplyChain.sol</text>
<polyline fill="none" stroke="black" points="1474.85,-1264.9 1694.18,-1264.9 "/>
<text text-anchor="start" x="1482.85" y="-1248.3" font-family="Times,serif" font-size="14.00">Harvested: 0</text>
<text text-anchor="start" x="1482.85" y="-1231.5" font-family="Times,serif" font-size="14.00">Processed: 1</text>
<text text-anchor="start" x="1482.85" y="-1214.7" font-family="Times,serif" font-size="14.00">Packed: 2</text>
<text text-anchor="start" x="1482.85" y="-1197.9" font-family="Times,serif" font-size="14.00">ForSale: 3</text>
<text text-anchor="start" x="1482.85" y="-1181.1" font-family="Times,serif" font-size="14.00">Sold: 4</text>
<text text-anchor="start" x="1482.85" y="-1164.3" font-family="Times,serif" font-size="14.00">Shipped: 5</text>
<text text-anchor="start" x="1482.85" y="-1147.5" font-family="Times,serif" font-size="14.00">Received: 6</text>
<text text-anchor="start" x="1482.85" y="-1130.7" font-family="Times,serif" font-size="14.00">Purchased: 7</text>
</g>
<!-- 7 -->
<g id="node10" class="node">
<title>7</title>
<polygon fill="#f2f2f2" stroke="black" points="519.02,-0.5 519.02,-730.1 1808.02,-730.1 1808.02,-0.5 519.02,-0.5"/>
<text text-anchor="middle" x="1163.52" y="-713.5" font-family="Times,serif" font-size="14.00">SupplyChain</text>
<text text-anchor="middle" x="1163.52" y="-696.7" font-family="Times,serif" font-size="14.00">contractscoffeebaseSupplyChain.sol</text>
<polyline fill="none" stroke="black" points="519.02,-688.5 1808.02,-688.5 "/>
<text text-anchor="start" x="527.02" y="-671.9" font-family="Times,serif" font-size="14.00">Public:</text>
<text text-anchor="start" x="527.02" y="-655.1" font-family="Times,serif" font-size="14.00"> &#160;&#160;ownerAdd: address</text>
<text text-anchor="start" x="527.02" y="-638.3" font-family="Times,serif" font-size="14.00"> &#160;&#160;upc: uint</text>
<text text-anchor="start" x="527.02" y="-621.5" font-family="Times,serif" font-size="14.00"> &#160;&#160;sku: uint</text>
<text text-anchor="start" x="527.02" y="-604.7" font-family="Times,serif" font-size="14.00"> &#160;&#160;items: mapping(uint=&gt;Item)</text>
<text text-anchor="start" x="527.02" y="-587.9" font-family="Times,serif" font-size="14.00"> &#160;&#160;itemsHistory: mapping(uint=&gt;string[])</text>
<text text-anchor="start" x="527.02" y="-571.1" font-family="Times,serif" font-size="14.00"> &#160;&#160;defaultState: State</text>
<polyline fill="none" stroke="black" points="519.02,-562.9 1808.02,-562.9 "/>
<text text-anchor="start" x="527.02" y="-546.3" font-family="Times,serif" font-size="14.00">Public:</text>
<text text-anchor="start" x="527.02" y="-529.5" font-family="Times,serif" font-size="14.00"> &#160;&#160;&#160;&lt;&lt;payable&gt;&gt; buyItem(_upc: uint) &lt;&lt;forSale, paidEnough, checkValue, onlyDistributor&gt;&gt;</text>
<text text-anchor="start" x="527.02" y="-512.7" font-family="Times,serif" font-size="14.00"> &#160;&#160;&#160;&lt;&lt;event&gt;&gt; Harvested(upc: uint)</text>
<text text-anchor="start" x="527.02" y="-495.9" font-family="Times,serif" font-size="14.00"> &#160;&#160;&#160;&lt;&lt;event&gt;&gt; Processed(upc: uint)</text>
<text text-anchor="start" x="527.02" y="-479.1" font-family="Times,serif" font-size="14.00"> &#160;&#160;&#160;&lt;&lt;event&gt;&gt; Packed(upc: uint)</text>
<text text-anchor="start" x="527.02" y="-462.3" font-family="Times,serif" font-size="14.00"> &#160;&#160;&#160;&lt;&lt;event&gt;&gt; ForSale(upc: uint)</text>
<text text-anchor="start" x="527.02" y="-445.5" font-family="Times,serif" font-size="14.00"> &#160;&#160;&#160;&lt;&lt;event&gt;&gt; Sold(upc: uint)</text>
<text text-anchor="start" x="527.02" y="-428.7" font-family="Times,serif" font-size="14.00"> &#160;&#160;&#160;&lt;&lt;event&gt;&gt; Shipped(upc: uint)</text>
<text text-anchor="start" x="527.02" y="-411.9" font-family="Times,serif" font-size="14.00"> &#160;&#160;&#160;&lt;&lt;event&gt;&gt; Received(upc: uint)</text>
<text text-anchor="start" x="527.02" y="-395.1" font-family="Times,serif" font-size="14.00"> &#160;&#160;&#160;&lt;&lt;event&gt;&gt; Purchased(upc: uint)</text>
<text text-anchor="start" x="527.02" y="-378.3" font-family="Times,serif" font-size="14.00"> &#160;&#160;&#160;&lt;&lt;modifier&gt;&gt; onlyOwner()</text>
<text text-anchor="start" x="527.02" y="-361.5" font-family="Times,serif" font-size="14.00"> &#160;&#160;&#160;&lt;&lt;modifier&gt;&gt; verifyCaller(_address: address)</text>
<text text-anchor="start" x="527.02" y="-344.7" font-family="Times,serif" font-size="14.00"> &#160;&#160;&#160;&lt;&lt;modifier&gt;&gt; paidEnough(_price: uint)</text>
<text text-anchor="start" x="527.02" y="-327.9" font-family="Times,serif" font-size="14.00"> &#160;&#160;&#160;&lt;&lt;modifier&gt;&gt; checkValue(_upc: uint)</text>
<text text-anchor="start" x="527.02" y="-311.1" font-family="Times,serif" font-size="14.00"> &#160;&#160;&#160;&lt;&lt;modifier&gt;&gt; harvested(_upc: uint)</text>
<text text-anchor="start" x="527.02" y="-294.3" font-family="Times,serif" font-size="14.00"> &#160;&#160;&#160;&lt;&lt;modifier&gt;&gt; processed(_upc: uint)</text>
<text text-anchor="start" x="527.02" y="-277.5" font-family="Times,serif" font-size="14.00"> &#160;&#160;&#160;&lt;&lt;modifier&gt;&gt; packed(_upc: uint)</text>
<text text-anchor="start" x="527.02" y="-260.7" font-family="Times,serif" font-size="14.00"> &#160;&#160;&#160;&lt;&lt;modifier&gt;&gt; forSale(_upc: uint)</text>
<text text-anchor="start" x="527.02" y="-243.9" font-family="Times,serif" font-size="14.00"> &#160;&#160;&#160;&lt;&lt;modifier&gt;&gt; sold(_upc: uint)</text>
<text text-anchor="start" x="527.02" y="-227.1" font-family="Times,serif" font-size="14.00"> &#160;&#160;&#160;&lt;&lt;modifier&gt;&gt; shipped(_upc: uint)</text>
<text text-anchor="start" x="527.02" y="-210.3" font-family="Times,serif" font-size="14.00"> &#160;&#160;&#160;&lt;&lt;modifier&gt;&gt; received(_upc: uint)</text>
<text text-anchor="start" x="527.02" y="-193.5" font-family="Times,serif" font-size="14.00"> &#160;&#160;&#160;&lt;&lt;modifier&gt;&gt; purchased(_upc: uint)</text>
<text text-anchor="start" x="527.02" y="-176.7" font-family="Times,serif" font-size="14.00"> &#160;&#160;&#160;constructor()</text>
<text text-anchor="start" x="527.02" y="-159.9" font-family="Times,serif" font-size="14.00"> &#160;&#160;&#160;kill()</text>
<text text-anchor="start" x="527.02" y="-143.1" font-family="Times,serif" font-size="14.00"> &#160;&#160;&#160;harvestItem(_upc: uint, _originFarmerID: address, _originFarmName: string, _originFarmInformation: string, _originFarmLatitude: string, _originFarmLongitude: string, _productNotes: string) &lt;&lt;onlyFarmer&gt;&gt;</text>
<text text-anchor="start" x="527.02" y="-126.3" font-family="Times,serif" font-size="14.00"> &#160;&#160;&#160;processItem(_upc: uint) &lt;&lt;harvested, verifyCaller, onlyFarmer&gt;&gt;</text>
<text text-anchor="start" x="527.02" y="-109.5" font-family="Times,serif" font-size="14.00"> &#160;&#160;&#160;packItem(_upc: uint) &lt;&lt;processed, verifyCaller, onlyFarmer&gt;&gt;</text>
<text text-anchor="start" x="527.02" y="-92.7" font-family="Times,serif" font-size="14.00"> &#160;&#160;&#160;sellItem(_upc: uint, _price: uint) &lt;&lt;packed, verifyCaller, onlyFarmer&gt;&gt;</text>
<text text-anchor="start" x="527.02" y="-75.9" font-family="Times,serif" font-size="14.00"> &#160;&#160;&#160;shipItem(_upc: uint) &lt;&lt;sold, verifyCaller, onlyDistributor&gt;&gt;</text>
<text text-anchor="start" x="527.02" y="-59.1" font-family="Times,serif" font-size="14.00"> &#160;&#160;&#160;receiveItem(_upc: uint) &lt;&lt;shipped, onlyRetailer&gt;&gt;</text>
<text text-anchor="start" x="527.02" y="-42.3" font-family="Times,serif" font-size="14.00"> &#160;&#160;&#160;purchaseItem(_upc: uint) &lt;&lt;received, onlyConsumer&gt;&gt;</text>
<text text-anchor="start" x="527.02" y="-25.5" font-family="Times,serif" font-size="14.00"> &#160;&#160;&#160;fetchItemBufferOne(_upc: uint): (itemSKU: uint, itemUPC: uint, ownerID: address, originFarmerID: address, originFarmName: string, originFarmInformation: string, originFarmLatitude: string, originFarmLongitude: string)</text>
<text text-anchor="start" x="527.02" y="-8.7" font-family="Times,serif" font-size="14.00"> &#160;&#160;&#160;fetchItemBufferTwo(_upc: uint): (itemSKU: uint, itemUPC: uint, productID: uint, productNotes: string, productPrice: uint, itemState: uint, distributorID: address, retailerID: address, consumerID: address)</text>
</g>
<!-- 8&#45;&gt;7 -->
<g id="edge13" class="edge">
<title>8&#45;&gt;7</title>
<path fill="none" stroke="black" d="M1604.71,-1122.17C1615.15,-1026.63 1616.24,-880.55 1565.52,-766.6 1561.69,-758 1557.59,-749.47 1553.24,-741.04"/>
<polygon fill="black" stroke="black" points="1553.22,-741 1546.88,-737.57 1547.61,-730.39 1553.95,-733.83 1553.22,-741"/>
</g>
<!-- 9 -->
<g id="node9" class="node">
<title>9</title>
<polygon fill="#f2f2f2" stroke="black" points="1327.85,-767.1 1327.85,-1085.5 1547.18,-1085.5 1547.18,-767.1 1327.85,-767.1"/>
<text text-anchor="middle" x="1437.52" y="-1068.9" font-family="Times,serif" font-size="14.00">&lt;&lt;Struct&gt;&gt;</text>
<text text-anchor="middle" x="1437.52" y="-1052.1" font-family="Times,serif" font-size="14.00">Item</text>
<text text-anchor="middle" x="1437.52" y="-1035.3" font-family="Times,serif" font-size="14.00">contractscoffeebaseSupplyChain.sol</text>
<polyline fill="none" stroke="black" points="1327.85,-1027.1 1547.18,-1027.1 "/>
<text text-anchor="start" x="1335.85" y="-1010.5" font-family="Times,serif" font-size="14.00">sku: uint</text>
<text text-anchor="start" x="1335.85" y="-993.7" font-family="Times,serif" font-size="14.00">upc: uint</text>
<text text-anchor="start" x="1335.85" y="-976.9" font-family="Times,serif" font-size="14.00">ownerID: address</text>
<text text-anchor="start" x="1335.85" y="-960.1" font-family="Times,serif" font-size="14.00">originFarmerID: address</text>
<text text-anchor="start" x="1335.85" y="-943.3" font-family="Times,serif" font-size="14.00">originFarmName: string</text>
<text text-anchor="start" x="1335.85" y="-926.5" font-family="Times,serif" font-size="14.00">originFarmInformation: string</text>
<text text-anchor="start" x="1335.85" y="-909.7" font-family="Times,serif" font-size="14.00">originFarmLatitude: string</text>
<text text-anchor="start" x="1335.85" y="-892.9" font-family="Times,serif" font-size="14.00">originFarmLongitude: string</text>
<text text-anchor="start" x="1335.85" y="-876.1" font-family="Times,serif" font-size="14.00">productID: uint</text>
<text text-anchor="start" x="1335.85" y="-859.3" font-family="Times,serif" font-size="14.00">productNotes: string</text>
<text text-anchor="start" x="1335.85" y="-842.5" font-family="Times,serif" font-size="14.00">productPrice: uint</text>
<text text-anchor="start" x="1335.85" y="-825.7" font-family="Times,serif" font-size="14.00">itemState: State</text>
<text text-anchor="start" x="1335.85" y="-808.9" font-family="Times,serif" font-size="14.00">distributorID: address</text>
<text text-anchor="start" x="1335.85" y="-792.1" font-family="Times,serif" font-size="14.00">retailerID: address</text>
<text text-anchor="start" x="1335.85" y="-775.3" font-family="Times,serif" font-size="14.00">consumerID: address</text>
</g>
<!-- 9&#45;&gt;8 -->
<g id="edge12" class="edge">
<title>9&#45;&gt;8</title>
<path fill="none" stroke="black" stroke-dasharray="5,2" d="M1516.61,-1085.81C1521.25,-1095.11 1525.86,-1104.34 1530.36,-1113.37"/>
<polygon fill="black" stroke="black" points="1527.23,-1114.93 1534.83,-1122.32 1533.5,-1111.81 1527.23,-1114.93"/>
</g>
<!-- 9&#45;&gt;7 -->
<g id="edge14" class="edge">
<title>9&#45;&gt;7</title>
<path fill="none" stroke="black" d="M1366.12,-767.09C1362.04,-758.58 1357.86,-749.88 1353.59,-741.04"/>
<polygon fill="black" stroke="black" points="1353.57,-740.99 1347.35,-737.32 1348.35,-730.18 1354.56,-733.85 1353.57,-740.99"/>
</g>
<!-- 7&#45;&gt;1 -->
<g id="edge19" class="edge">
<title>7&#45;&gt;1</title>
<path fill="none" stroke="black" d="M697.66,-730.23C683.05,-742.42 668.64,-754.57 654.52,-766.6 653.88,-767.15 653.24,-767.69 652.6,-768.24"/>
<polygon fill="none" stroke="black" points="645.39,-760.59 629.61,-788.19 659.15,-776.45 645.39,-760.59"/>
</g>
<!-- 7&#45;&gt;2 -->
<g id="edge17" class="edge">
<title>7&#45;&gt;2</title>
<path fill="none" stroke="black" d="M947.4,-730.18C940.97,-741.01 934.65,-751.65 928.48,-762.04"/>
<polygon fill="none" stroke="black" points="919.32,-756.9 913.03,-788.06 937.38,-767.62 919.32,-756.9"/>
</g>
<!-- 7&#45;&gt;3 -->
<g id="edge16" class="edge">
<title>7&#45;&gt;3</title>
<path fill="none" stroke="black" d="M1163.52,-730.18C1163.52,-739.6 1163.52,-748.88 1163.52,-757.96"/>
<polygon fill="none" stroke="black" points="1153.02,-758.06 1163.52,-788.06 1174.02,-758.06 1153.02,-758.06"/>
</g>
<!-- 7&#45;&gt;4 -->
<g id="edge18" class="edge">
<title>7&#45;&gt;4</title>
<path fill="none" stroke="black" d="M518.78,-727.62C516.02,-728.62 513.27,-729.62 510.52,-730.6 425.05,-761.13 389.98,-724.62 309.52,-766.6 306.49,-768.18 303.48,-769.84 300.49,-771.57"/>
<polygon fill="none" stroke="black" points="294.64,-762.85 275.33,-788.09 306.17,-780.4 294.64,-762.85"/>
</g>
<!-- 7&#45;&gt;8 -->
<g id="edge21" class="edge">
<title>7&#45;&gt;8</title>
<path fill="none" stroke="black" d="M1529.61,-730.39C1536.08,-742.29 1542.07,-754.37 1547.52,-766.6 1596.46,-876.55 1597.16,-1016.4 1591.54,-1111.91"/>
<polygon fill="black" stroke="black" points="1588.03,-1111.97 1590.9,-1122.17 1595.01,-1112.4 1588.03,-1111.97"/>
</g>
<!-- 7&#45;&gt;9 -->
<g id="edge20" class="edge">
<title>7&#45;&gt;9</title>
<path fill="none" stroke="black" d="M1335.41,-730.18C1340.11,-739.63 1344.74,-748.93 1349.3,-758.05"/>
<polygon fill="black" stroke="black" points="1346.22,-759.72 1353.82,-767.09 1352.48,-756.59 1346.22,-759.72"/>
</g>
<!-- 10 -->
<g id="node11" class="node">
<title>10</title>
<polygon fill="#f2f2f2" stroke="black" points="1621.15,-796.7 1621.15,-1055.9 2057.88,-1055.9 2057.88,-796.7 1621.15,-796.7"/>
<text text-anchor="middle" x="1839.52" y="-1039.3" font-family="Times,serif" font-size="14.00">Ownable</text>
<text text-anchor="middle" x="1839.52" y="-1022.5" font-family="Times,serif" font-size="14.00">contractscoffeecoreOwnable.sol</text>
<polyline fill="none" stroke="black" points="1621.15,-1014.3 2057.88,-1014.3 "/>
<text text-anchor="start" x="1629.15" y="-997.7" font-family="Times,serif" font-size="14.00">Private:</text>
<text text-anchor="start" x="1629.15" y="-980.9" font-family="Times,serif" font-size="14.00"> &#160;&#160;origOwner: address</text>
<polyline fill="none" stroke="black" points="1621.15,-972.7 2057.88,-972.7 "/>
<text text-anchor="start" x="1629.15" y="-956.1" font-family="Times,serif" font-size="14.00">Internal:</text>
<text text-anchor="start" x="1629.15" y="-939.3" font-family="Times,serif" font-size="14.00"> &#160;&#160;&#160;_transferOwnership(newOwner: address)</text>
<text text-anchor="start" x="1629.15" y="-922.5" font-family="Times,serif" font-size="14.00">Public:</text>
<text text-anchor="start" x="1629.15" y="-905.7" font-family="Times,serif" font-size="14.00"> &#160;&#160;&#160;&lt;&lt;event&gt;&gt; TransferOwnership(oldOwner: address, newOwner: address)</text>
<text text-anchor="start" x="1629.15" y="-888.9" font-family="Times,serif" font-size="14.00"> &#160;&#160;&#160;&lt;&lt;modifier&gt;&gt; onlyOwner()</text>
<text text-anchor="start" x="1629.15" y="-872.1" font-family="Times,serif" font-size="14.00"> &#160;&#160;&#160;constructor()</text>
<text text-anchor="start" x="1629.15" y="-855.3" font-family="Times,serif" font-size="14.00"> &#160;&#160;&#160;owner(): address</text>
<text text-anchor="start" x="1629.15" y="-838.5" font-family="Times,serif" font-size="14.00"> &#160;&#160;&#160;isOwner(): bool</text>
<text text-anchor="start" x="1629.15" y="-821.7" font-family="Times,serif" font-size="14.00"> &#160;&#160;&#160;renounceOwnership() &lt;&lt;onlyOwner&gt;&gt;</text>
<text text-anchor="start" x="1629.15" y="-804.9" font-family="Times,serif" font-size="14.00"> &#160;&#160;&#160;transferOwnership(newOwner: address) &lt;&lt;onlyOwner&gt;&gt;</text>
</g>
<!-- 7&#45;&gt;10 -->
<g id="edge15" class="edge">
<title>7&#45;&gt;10</title>
<path fill="none" stroke="black" d="M1603.56,-730.18C1623.19,-746.41 1642.31,-762.22 1660.63,-777.37"/>
<polygon fill="none" stroke="black" points="1653.98,-785.5 1683.79,-796.52 1667.36,-769.31 1653.98,-785.5"/>
</g>
</g>
</svg>
